<?xml version="1.0" encoding="iso-8859-1"?>
<!-- Uploaded to: SVG Repo, www.svgrepo.com, Generator: SVG Repo Mixer Tools -->
<svg height="800px" width="800px" version="1.1" id="Layer_1" xmlns="http://www.w3.org/2000/svg" xmlns:xlink="http://www.w3.org/1999/xlink" 
	 viewBox="0 0 511.999 511.999" xml:space="preserve">
<path style="fill:#CCBE86;" d="M447.553,19.552c27.224,20.978,22.666,72.521-10.162,115.119
	c-4.581,5.947-9.472,11.402-14.582,16.339c-18.567-33.7-54.505-59.959-95.943-74.3v-0.012c3.445-6.108,7.428-12.136,11.942-18.004
	C371.646,16.095,420.329-1.437,447.553,19.552z"/>
<path style="fill:#F0DF9E;" d="M365.078,430.069c-7.418,1.079-14.938,1.366-22.011,1.366l-87.068-21.529l-87.068,21.529
	c-7.016,0-14.467-0.276-21.838-1.344c-29.98-4.317-58.57-21.644-51.072-86.069c5.832-50.096,4.903-24.433-17.235-116.692
	c-6.694-27.878-2.044-53.758,10.403-76.321c12.711-23.079,33.585-42.679,58.788-57.342c11.597-6.752,24.101-12.447,37.156-16.959
	c22.619-7.842,46.893-12.125,70.868-12.125s48.247,4.282,70.868,12.125c41.439,14.341,77.378,40.601,95.943,74.3
	c12.435,22.562,17.086,48.443,10.391,76.321c-22.137,92.258-23.067,66.596-17.235,116.692
	C423.453,408.322,394.989,425.694,365.078,430.069z M255.998,350.326c0,0,33.286-14.904,33.286-33.286
	c0-18.383-14.904-18.095-33.286-18.095s-33.286-0.287-33.286,18.095C222.712,335.422,255.998,350.326,255.998,350.326z"/>
<path style="fill:#CCBE86;" d="M360.346,422.532v11.367c0,33.102-26.833,59.925-59.925,59.925h-98.31
	c-33.102,0-59.937-26.822-59.937-59.925v-10.001l0.184-1.344c7.371,1.068,14.824,1.344,21.838,1.344l87.068-21.529l87.068,21.529
	C345.408,423.898,352.928,423.611,360.346,422.532z"/>
<path style="fill:#A3875E;" d="M289.285,317.04c0,18.383-33.286,33.286-33.286,33.286s-33.286-14.904-33.286-33.286
	c0-18.383,14.904-18.095,33.286-18.095S289.285,298.657,289.285,317.04z"/>
<path style="fill:#CCBE86;" d="M147.976,93.668c-25.204,14.662-46.077,34.262-58.788,57.342
	c-5.109-4.938-10.001-10.391-14.582-16.339C41.778,92.072,37.221,40.53,64.445,19.552c27.224-20.989,75.907-3.456,108.747,39.142
	c4.512,5.868,8.497,11.896,11.942,18.004v0.012C172.076,81.222,159.573,86.917,147.976,93.668z"/>
<g>
	<path style="fill:#F0DF9E;" d="M123.433,104.574c-15.522,9.031-28.378,21.101-36.207,35.315c-3.147-3.041-6.159-6.4-8.981-10.063
		c-20.218-26.236-23.025-57.979-6.258-70.899c16.767-12.927,46.75-2.129,66.975,24.107c2.779,3.613,5.232,7.326,7.354,11.088v0.007
		C138.276,96.909,130.575,100.416,123.433,104.574z"/>
	<path style="fill:#F0DF9E;" d="M388.564,104.574c15.522,9.031,28.378,21.101,36.207,35.315c3.147-3.041,6.159-6.4,8.981-10.063
		c20.218-26.236,23.025-57.979,6.258-70.899C423.243,46,393.26,56.798,373.035,83.034c-2.779,3.613-5.232,7.326-7.354,11.088v0.007
		C373.722,96.909,381.422,100.416,388.564,104.574z"/>
</g>
<path d="M454.05,11.127C437.909-1.318,415.759-3.4,391.682,5.267c-22.423,8.073-44.194,24.74-61.309,46.941
	c-2.941,3.824-5.681,7.77-8.244,11.78c-21.583-6.58-44.27-10.042-66.13-10.042c-21.863,0-44.552,3.463-66.13,10.042
	c-2.564-4.011-5.307-7.96-8.252-11.789c-17.108-22.192-38.878-38.858-61.302-46.931C96.239-3.4,74.089-1.318,57.949,11.125
	C41.807,23.564,34.156,44.451,36.408,69.94c2.097,23.74,12.669,49.034,29.769,71.222c3.171,4.116,6.551,8.059,10.068,11.82
	c-11.39,24.21-14.102,50.608-7.805,76.831c6.45,26.877,11.193,44.11,14.331,55.513c6.644,24.139,6.644,24.139,3.663,49.152
	c-0.301,2.523-0.63,5.28-0.983,8.314c-6.304,54.167,10.798,86.419,50.818,96.045v2.6c0,38.908,31.659,70.563,70.575,70.563h98.309
	c38.909,0,70.564-31.655,70.564-70.563v-2.598c40.024-9.641,57.122-41.897,50.818-96.047c-0.353-3.034-0.682-5.79-0.982-8.313
	c-2.981-25.014-2.981-25.014,3.663-49.153c2.291-8.32,5.427-19.715,9.412-35.506c1.437-5.696-2.016-11.481-7.714-12.919
	c-5.701-1.435-11.482,2.016-12.919,7.714c-3.928,15.569-7.029,26.837-9.294,35.064c-7.534,27.373-7.654,28.978-4.277,57.317
	c0.299,2.505,0.625,5.243,0.976,8.256c6.917,59.408-18.737,70.907-41.853,74.288c-5.57,0.811-11.699,1.212-19.197,1.252
	l-77.711-19.216v-44.645c11.748-6.279,33.286-20.446,33.286-39.892c0-16.103-8.857-22.898-16.288-25.764
	c-7.714-2.975-17.004-2.962-26.806-2.971h-1.663c-9.796,0.001-19.093-0.005-26.806,2.971c-7.431,2.865-16.288,9.662-16.288,25.764
	c0,19.448,21.538,33.613,33.286,39.892v44.645l-77.711,19.216c-7.459-0.04-13.535-0.434-19.04-1.231
	c-23.201-3.342-48.945-14.807-42.02-74.309c0.351-3.013,0.677-5.751,0.976-8.257c3.377-28.338,3.257-29.945-4.277-57.316
	c-3.101-11.268-7.789-28.297-14.156-54.832c-5.741-23.906-2.586-47.018,9.376-68.705c11.338-20.587,30.294-39.01,54.821-53.279
	c10.951-6.376,22.82-11.792,35.289-16.102c18.332-6.356,37.746-10.178,56.743-11.23v21.145c0,5.875,4.763,10.639,10.639,10.639
	c5.876,0,10.639-4.764,10.639-10.639V75.532c18.997,1.052,38.411,4.874,56.748,11.232c40.739,14.099,73.581,39.387,90.106,69.381
	c5.19,9.417,8.76,19.266,10.612,29.274c0.948,5.124,5.42,8.706,10.45,8.706c0.642,0,1.294-0.059,1.948-0.18
	c5.778-1.069,9.596-6.62,8.526-12.397c-1.8-9.734-4.93-19.304-9.287-28.552c3.522-3.765,6.906-7.711,10.079-11.831
	c17.102-22.192,27.674-47.487,29.771-71.225C477.841,44.451,470.191,23.564,454.05,11.127z M233.351,317.04
	c0-4.883,1.177-5.337,2.666-5.911c3.876-1.495,10.861-1.545,18.341-1.545c0.267,0,0.534,0,0.802,0h1.674
	c7.758-0.004,15.129-0.003,19.143,1.545c1.49,0.575,2.666,1.028,2.666,5.911c0,6.422-12.218,15.844-22.659,21.432
	C245.547,332.907,233.351,323.506,233.351,317.04z M168.93,442.074c0.861,0,1.718-0.104,2.553-0.311l28.636-7.082v24.78
	c0,5.875,4.763,10.639,10.639,10.639s10.639-4.764,10.639-10.639V429.42l34.6-8.556l32.82,8.116v30.482
	c0,5.875,4.763,10.639,10.639,10.639c5.876,0,10.639-4.764,10.639-10.639v-25.221l30.415,7.521c0.835,0.206,1.693,0.311,2.553,0.311
	c4.091,0,7.837-0.1,11.363-0.295c-0.186,27.018-22.216,48.941-49.277,48.941h-98.309c-27.066,0-49.102-21.923-49.288-48.94
	C161.078,441.975,164.828,442.074,168.93,442.074z M87.512,133.667c-1.53-1.794-3.034-3.615-4.478-5.491
	c-14.655-19.016-23.686-40.362-25.43-60.108c-1.59-18,3.146-32.237,13.336-40.09c10.188-7.856,25.163-8.809,42.168-2.69
	c18.651,6.716,36.996,20.886,51.649,39.893c1.56,2.028,3.041,4.099,4.48,6.189c-6.112,2.518-12.072,5.277-17.839,8.278
	c-0.647-0.886-1.305-1.766-1.977-2.636c-8.972-11.642-19.534-21.154-29.74-26.786c-17.401-9.602-27.897-4.943-32.605-1.311
	c-4.653,3.589-5.515,10.269-1.926,14.922c3.555,4.611,10.145,5.501,14.792,2.025c3.24-0.938,17.819,4.927,32.628,24.142
	c0.122,0.159,0.239,0.321,0.361,0.481C114.291,102.773,98.881,117.439,87.512,133.667z M454.393,68.068
	c-1.744,19.747-10.776,41.092-25.431,60.111c-1.444,1.875-2.948,3.696-4.478,5.49c-11.431-16.266-26.957-30.941-45.441-43.151
	c0.13-0.171,0.255-0.345,0.386-0.515c14.807-19.211,29.394-25.072,32.627-24.139c4.646,3.475,11.237,2.583,14.792-2.025
	c3.59-4.653,2.727-11.333-1.926-14.922c-4.708-3.633-15.206-8.29-32.605,1.311c-10.206,5.631-20.768,15.143-29.738,26.782
	c-0.677,0.877-1.339,1.763-1.992,2.657c-5.742-2.993-11.687-5.772-17.821-8.303c1.436-2.084,2.913-4.151,4.467-6.172
	c14.66-19.017,33.005-33.187,51.656-39.903c17.005-6.121,31.98-5.165,42.17,2.692C451.248,35.83,455.984,50.068,454.393,68.068z"/>
<path d="M436.766,204.316c-5.82-0.717-11.141,3.426-11.86,9.258c-0.119,0.969-0.254,1.942-0.404,2.916
	c-0.895,5.807,3.086,11.24,8.893,12.135c0.55,0.085,1.095,0.126,1.634,0.126c5.16,0,9.691-3.761,10.502-9.02
	c0.183-1.188,0.347-2.375,0.493-3.557C446.744,210.344,442.598,205.034,436.766,204.316z"/>
<path d="M214.64,259.085c5.876,0,10.639-4.764,10.639-10.639c0-23.993-19.52-43.512-43.512-43.512
	c-23.986,0-43.501,19.52-43.501,43.512c0,5.875,4.763,10.639,10.639,10.639s10.639-4.764,10.639-10.639
	c0-12.259,9.969-22.233,22.222-22.233c12.26,0,22.233,9.974,22.233,22.233C204.001,254.321,208.764,259.085,214.64,259.085z"/>
<path d="M371.538,248.446c0-23.993-19.52-43.512-43.512-43.512c-23.986,0-43.501,19.52-43.501,43.512
	c0,5.875,4.763,10.639,10.639,10.639c5.876,0,10.639-4.764,10.639-10.639c0-12.259,9.969-22.233,22.222-22.233
	c12.26,0,22.233,9.974,22.233,22.233c0,5.875,4.763,10.639,10.639,10.639C366.775,259.085,371.538,254.321,371.538,248.446z"/>
<path d="M255.998,127.751c-5.876,0-10.639,4.764-10.639,10.639v16.052c0,5.875,4.763,10.639,10.639,10.639
	c5.876,0,10.639-4.764,10.639-10.639V138.39C266.638,132.515,261.874,127.751,255.998,127.751z"/>
<path d="M223.178,125.497v-16.053c0-5.875-4.763-10.639-10.639-10.639s-10.639,4.764-10.639,10.639v16.053
	c0,5.875,4.763,10.639,10.639,10.639S223.178,131.373,223.178,125.497z"/>
<path d="M310.097,125.497v-16.053c0-5.875-4.763-10.639-10.639-10.639c-5.876,0-10.639,4.764-10.639,10.639v16.053
	c0,5.875,4.763,10.639,10.639,10.639C305.334,136.136,310.097,131.373,310.097,125.497z"/>
<path d="M159.125,329.629c-5.876,0-10.639,4.764-10.639,10.639c0,5.875,4.763,10.639,10.639,10.639h3.915
	c5.876,0,10.639-4.764,10.639-10.639c0-5.875-4.763-10.639-10.639-10.639H159.125z"/>
<path d="M189.012,366.694h-3.927c-5.876,0-10.639,4.764-10.639,10.639c0,5.875,4.763,10.639,10.639,10.639h3.927
	c5.876,0,10.639-4.764,10.639-10.639C199.651,371.458,194.888,366.694,189.012,366.694z"/>
<path d="M133.152,366.694c-5.876,0-10.639,4.764-10.639,10.639c0,5.875,4.763,10.639,10.639,10.639h3.927
	c5.876,0,10.639-4.764,10.639-10.639c0-5.875-4.763-10.639-10.639-10.639H133.152z"/>
<path d="M351.093,329.629h-3.915c-5.876,0-10.639,4.764-10.639,10.639c0,5.875,4.763,10.639,10.639,10.639h3.915
	c5.876,0,10.639-4.764,10.639-10.639C361.732,334.394,356.969,329.629,351.093,329.629z"/>
<path d="M373.139,387.972h3.927c5.876,0,10.639-4.764,10.639-10.639c0-5.875-4.763-10.639-10.639-10.639h-3.927
	c-5.876,0-10.639,4.764-10.639,10.639C362.499,383.208,367.262,387.972,373.139,387.972z"/>
<path d="M321.205,366.694c-5.876,0-10.639,4.764-10.639,10.639c0,5.875,4.763,10.639,10.639,10.639h3.927
	c5.876,0,10.639-4.764,10.639-10.639c0-5.875-4.763-10.639-10.639-10.639H321.205z"/>
</svg>