<?xml version="1.0" encoding="iso-8859-1"?>
<!-- Uploaded to: SVG Repo, www.svgrepo.com, Generator: SVG Repo Mixer Tools -->
<svg height="800px" width="800px" version="1.1" id="Layer_1" xmlns="http://www.w3.org/2000/svg" xmlns:xlink="http://www.w3.org/1999/xlink" 
	 viewBox="0 0 512 512" xml:space="preserve">
<path style="fill:#DBB67E;" d="M354.07,426.32v19.91h45.619c15.202,0,28.965,6.161,38.92,16.116
	c9.967,9.967,16.128,23.73,16.128,38.932H305.534c-27.032,0-43.968-29.222-30.545-52.682l2.296-4.006
	C185.39,532.82,16.71,476.905,13.735,475.909c2.881,0.457,171.749,27.196,171.749-77.313c0-102.283,36.133-122.639,92.996-141.286
	c70.391-23.073,52.67-98.419,52.354-141.46c-0.081-10.997,3.935-21.246,10.764-29.082c6.242-7.215,14.874-12.369,24.853-14.16
	c6.078-1.089,12.626-1.464,19.442-1.078c12.298,0.668,25.486,3.794,38.463,9.546c1.78,0.785,3.561,1.639,5.352,2.541
	c38.299,19.431,76.997,64.687,67.03,87.198c-10.436,23.554-69.594,26.622-109.545,8.913
	c-8.233,36.694,27.395,108.584,17.253,171.234C399.842,379.366,385.834,405.858,354.07,426.32z"/>
<g>
	<path style="fill:#A3875E;" d="M430.2,25.175v57.496l-0.492,0.949c-1.792-0.902-3.573-1.757-5.352-2.541
		c-12.978-5.751-26.166-8.878-38.463-9.546v-2.05C385.892,45.004,405.733,25.175,430.2,25.175z"/>
	<path style="fill:#A3875E;" d="M385.892,69.482v2.05c-6.817-0.386-13.364-0.012-19.442,1.078
		c-9.979,1.792-18.611,6.946-24.853,14.16l-0.012-0.012V55.029c0-24.467,19.841-44.308,44.308-44.308v58.761H385.892z"/>
</g>
<path d="M13.699,465.176c-0.105,0-0.207,0.013-0.312,0.016c-0.023,0.001-0.044,0.002-0.072,0.003
	c-0.051,0.002-0.102,0.005-0.153,0.007c-5.671,0.281-10.186,4.955-10.186,10.695c0,11.492,14.591,12.631,22.832,14.673
	c12.006,2.975,24.093,5.64,36.262,7.857c24.555,4.474,49.496,7.134,74.477,6.814c43.129-0.552,86.797-10.347,123.461-33.066
	C263.049,494.779,282.765,512,305.533,512h149.203c5.921,0,10.722-4.801,10.722-10.722c0-17.57-6.843-34.088-19.268-46.513
	c-12.418-12.418-28.932-19.256-46.502-19.256H364.79v-3.474c0.15-0.105,0.296-0.213,0.446-0.318
	c20.811-14.658,36.933-34.852,44.907-59.149c5.151-15.697,7.095-32.323,6.842-48.799c-0.441-28.652-6.773-56.954-13.19-84.748
	c-1.733-7.506-3.226-15.067-4.476-22.669c-1.167-7.096-2.606-14.434-2.606-21.638c0.028,0.92,12.335,3.265,13.642,3.544
	c5.122,1.094,10.298,1.933,15.503,2.516c22.475,2.52,50.553,2.021,69.557-12.125c4.734-3.524,8.723-8.065,11.126-13.489
	c6.37-14.389,0.39-34.199-16.839-55.783c-13.015-16.307-30.861-31.554-48.78-41.856V25.175c0-5.921-4.801-10.722-10.722-10.722
	c-12.638,0-24.286,4.293-33.586,11.483V10.722C396.614,4.801,391.813,0,385.892,0c-30.343,0-55.029,24.686-55.029,55.029
	c0,0,0,28.002,0,28.006c0,2.285-5.006,7.995-6.08,10.417c-1.729,3.901-2.999,8.004-3.772,12.199
	c-1.654,8.977-0.291,17.795,0.216,26.825c1.053,18.786,1.03,37.698-0.346,56.468c-1.056,14.39-6.544,29.348-16.265,40.149
	c-0.414,0.456-0.836,0.905-1.268,1.35c-0.121,0.124-0.237,0.251-0.359,0.374c-6.809,6.869-15.874,12.379-27.861,16.31
	c-20.434,6.7-41.427,14.459-58.615,28.464c-0.146,0.108-0.295,0.208-0.436,0.325c-1.361,1.121-2.673,2.287-3.962,3.475
	c-0.202,0.184-0.403,0.368-0.604,0.554c-0.406,0.381-0.809,0.766-1.208,1.154c-0.496,0.479-0.986,0.967-1.474,1.46
	c-0.175,0.177-0.352,0.352-0.524,0.531c-2.089,2.143-4.103,4.405-6.024,6.808c-22.007,27.548-27.245,64.787-27.657,98.999
	c-0.127,10.488,0.36,20.577-2.91,30.723c-3.103,9.626-8.906,18.044-16.585,24.598c-33.792,28.847-106.045,26.434-139.616,21.116
	C14.912,465.231,14.305,465.176,13.699,465.176z M419.478,67.605c-0.176-0.062-0.353-0.119-0.53-0.18
	c-0.518-0.181-1.037-0.357-1.556-0.532c-0.375-0.125-0.752-0.251-1.128-0.373c-0.531-0.173-1.061-0.339-1.592-0.504
	c-0.367-0.114-0.732-0.227-1.099-0.338c-0.546-0.164-1.091-0.322-1.637-0.478c-0.355-0.101-0.709-0.203-1.064-0.301
	c-0.561-0.154-1.121-0.302-1.682-0.449c-0.342-0.089-0.684-0.18-1.026-0.266c-0.577-0.145-1.154-0.283-1.729-0.42
	c-0.328-0.077-0.655-0.157-0.982-0.232c-0.592-0.135-1.184-0.262-1.776-0.388c-0.314-0.066-0.627-0.135-0.941-0.199
	c-0.608-0.123-1.216-0.239-1.823-0.353c-0.297-0.056-0.595-0.115-0.892-0.168c-0.625-0.113-1.25-0.216-1.874-0.317
	c-0.224-0.036-0.449-0.078-0.673-0.114c0.024-0.104,0.04-0.211,0.064-0.314c0.063-0.264,0.137-0.523,0.207-0.785
	c0.142-0.533,0.292-1.063,0.458-1.586c0.09-0.283,0.184-0.563,0.282-0.843c0.176-0.506,0.366-1.006,0.565-1.5
	c0.105-0.261,0.208-0.523,0.32-0.782c0.241-0.559,0.503-1.106,0.773-1.649c0.087-0.175,0.166-0.355,0.256-0.528
	c0.369-0.708,0.761-1.4,1.178-2.077c0.1-0.162,0.209-0.316,0.312-0.476c0.327-0.511,0.663-1.016,1.016-1.509
	c0.163-0.227,0.335-0.448,0.503-0.671c0.315-0.417,0.638-0.828,0.972-1.23c0.188-0.225,0.377-0.449,0.571-0.67
	c0.348-0.398,0.709-0.785,1.075-1.165c0.188-0.194,0.371-0.392,0.564-0.582c0.465-0.461,0.947-0.906,1.438-1.339
	c0.103-0.091,0.201-0.189,0.305-0.278c0.599-0.515,1.218-1.007,1.853-1.479c0.184-0.137,0.376-0.264,0.563-0.397
	c0.461-0.329,0.928-0.651,1.407-0.956c0.243-0.155,0.491-0.303,0.738-0.454c0.445-0.269,0.896-0.529,1.355-0.776
	c0.258-0.14,0.517-0.279,0.779-0.413c0.488-0.248,0.985-0.48,1.487-0.705c0.235-0.105,0.466-0.217,0.704-0.316
	c0.741-0.312,1.491-0.604,2.257-0.862v29.954H419.478z M352.307,55.029c0-14.771,9.584-27.347,22.863-31.831v37.621
	c-0.354,0.02-0.703,0.051-1.056,0.076c-0.54,0.038-1.083,0.07-1.62,0.116c-0.386,0.033-0.768,0.078-1.152,0.116
	c-0.509,0.05-1.022,0.095-1.528,0.155c-0.474,0.055-0.941,0.123-1.412,0.185c-0.412,0.055-0.827,0.103-1.235,0.163
	c-0.877,0.129-1.748,0.27-2.612,0.426c-0.945,0.169-1.882,0.374-2.813,0.594c-0.259,0.061-0.517,0.127-0.775,0.192
	c-0.753,0.19-1.5,0.396-2.243,0.618c-0.192,0.057-0.385,0.109-0.576,0.168c-0.907,0.282-1.806,0.59-2.694,0.919
	c-0.197,0.073-0.392,0.153-0.59,0.228c-0.728,0.28-1.45,0.575-2.165,0.886c-0.13,0.057-0.265,0.104-0.393,0.161V55.029H352.307z
	 M196.205,398.597c0-1.237,0.008-2.458,0.018-3.673c0.005-0.604,0.014-1.2,0.023-1.796c0.006-0.495,0.014-0.989,0.023-1.48
	c0.653-36.265,6.429-59.24,14.05-74.607c0.247-0.493,0.493-0.986,0.747-1.469c0.05-0.096,0.101-0.191,0.151-0.287
	c2.324-4.391,4.928-8.383,7.818-12.002c2.499-3.128,5.2-5.976,8.112-8.612c0.244-0.219,0.488-0.434,0.731-0.648
	c6.671-5.881,14.477-10.664,23.659-14.966c0.658-0.309,1.32-0.615,1.987-0.918c8.283-3.741,17.645-7.147,28.296-10.639
	c67.458-22.114,63.397-87.345,60.709-130.511c-0.477-7.663-0.927-14.902-0.974-21.218c-0.061-8.075,2.824-15.869,8.15-21.986
	c3.606-4.165,8.231-7.33,13.359-9.198c1.71-0.623,3.475-1.101,5.278-1.425c5.309-0.952,11.009-1.263,16.969-0.925
	c11.333,0.615,23.333,3.604,34.722,8.651c1.451,0.639,3.031,1.39,4.829,2.293c36.528,18.534,68.177,59.506,62.074,73.291
	c-3.09,6.972-16.695,12.302-34.661,13.578c-20.428,1.446-43.101-2.323-60.681-10.102c-0.018-0.008-0.036-0.015-0.055-0.023
	c-0.087-0.039-0.176-0.065-0.263-0.101c-0.236-0.098-0.472-0.195-0.718-0.276c-0.035-0.012-0.07-0.023-0.105-0.033
	c-0.078-0.025-0.158-0.041-0.236-0.064c-0.161-0.047-0.322-0.092-0.482-0.132c-0.065-0.016-0.128-0.039-0.205-0.056
	c-0.065-0.014-0.13-0.025-0.195-0.039c-0.091-0.018-0.182-0.03-0.273-0.045c-0.285-0.05-0.57-0.093-0.857-0.121
	c-0.101-0.01-0.203-0.013-0.305-0.02c-0.275-0.018-0.549-0.028-0.822-0.025c-0.114,0.001-0.226,0.006-0.34,0.011
	c-0.135,0.006-0.271,0.003-0.405,0.014c-0.128,0.011-0.252,0.034-0.378,0.048c-0.12,0.014-0.24,0.029-0.36,0.047
	c-0.095,0.014-0.192,0.02-0.286,0.038c-0.161,0.029-0.318,0.072-0.477,0.108c-0.117,0.026-0.234,0.05-0.35,0.08
	c-0.06,0.016-0.121,0.026-0.18,0.043c-0.199,0.056-0.392,0.128-0.588,0.195c-0.101,0.034-0.203,0.063-0.302,0.101
	c-0.031,0.012-0.063,0.021-0.094,0.033c-0.158,0.061-0.308,0.135-0.462,0.204c-0.16,0.071-0.322,0.135-0.493,0.221
	c-0.095,0.048-0.184,0.106-0.278,0.157c-0.21,0.114-0.42,0.226-0.623,0.354c-0.022,0.014-0.044,0.031-0.065,0.045
	c-0.086,0.056-0.167,0.118-0.252,0.176c-0.226,0.154-0.449,0.315-0.664,0.488c-0.091,0.073-0.177,0.15-0.266,0.225
	c-0.199,0.17-0.392,0.347-0.58,0.533c-0.085,0.085-0.166,0.17-0.248,0.257c-0.176,0.187-0.345,0.381-0.508,0.581
	c-0.078,0.096-0.157,0.194-0.232,0.293c-0.158,0.207-0.305,0.422-0.447,0.642c-0.062,0.095-0.125,0.189-0.184,0.286
	c-0.142,0.235-0.27,0.479-0.395,0.726c-0.046,0.092-0.098,0.182-0.142,0.277c-0.027,0.057-0.055,0.112-0.088,0.183
	c-0.039,0.087-0.065,0.177-0.101,0.264c-0.049,0.12-0.098,0.242-0.143,0.365c-0.032,0.086-0.07,0.168-0.1,0.255
	c-0.011,0.033-0.023,0.065-0.033,0.099c-0.087,0.261-0.153,0.524-0.219,0.787c-0.019,0.077-0.046,0.151-0.066,0.246
	c-0.017,0.076-0.028,0.153-0.044,0.229c-4.145,18.889,1.244,43.356,7.488,71.672c0.655,2.973,1.319,5.983,1.979,9.023
	c5.324,24.517,10.422,51.029,9.219,76.135c-25.072-17.9-30.561-57.465-30.663-58.228c-0.74-5.869-6.094-10.031-11.969-9.296
	c-5.874,0.736-10.042,6.095-9.308,11.971c0.316,2.524,7.778,58.352,48.767,78.608c-4.527,18.759-13.756,34.465-27.942,47.516
	c-5.372-53.409-50.578-95.241-105.372-95.241c-5.921,0-10.722,4.801-10.722,10.722s4.801,10.722,10.722,10.722
	c46.573,0,84.463,37.896,84.463,84.476v10.61v19.91c0,5.921,4.801,10.722,10.722,10.722h45.619c11.841,0,22.971,4.608,31.339,12.977
	c5.785,5.785,9.775,12.888,11.689,20.628H305.534c-8.824,0-16.736-4.559-21.165-12.195c-3.811-6.57-4.354-14.537-1.488-21.565
	c2.41-5.911,7.732-11.274,3.515-17.882c-2.679-4.199-8.53-6.031-13.126-4.11c-2.454,1.026-4.424,2.916-6.388,4.71
	c-19.115,17.454-43.038,29.163-68.036,35.883s-51.097,8.607-76.975,7.988c4.692,0.113,11.039-3.01,15.373-4.659
	c5.247-1.996,10.351-4.37,15.258-7.098c9.066-5.038,17.653-11.146,24.551-18.942C190.281,437.735,196.205,418.358,196.205,398.597z"
	/>
<path d="M392.943,147.163c5.921,0,10.722-4.801,10.722-10.722c0-3.692,3.003-6.695,6.695-6.695c3.69,0,6.694,3.003,6.694,6.695
	c0,5.921,4.801,10.722,10.722,10.722s10.722-4.801,10.722-10.722c0-15.516-12.622-28.138-28.137-28.138
	c-15.516,0-28.138,12.623-28.138,28.138C382.221,142.362,387.022,147.163,392.943,147.163z"/>
</svg>