<?xml version="1.0" encoding="iso-8859-1"?>
<!-- Uploaded to: SVG Repo, www.svgrepo.com, Generator: SVG Repo Mixer Tools -->
<svg version="1.1" id="Layer_1" xmlns="http://www.w3.org/2000/svg" xmlns:xlink="http://www.w3.org/1999/xlink" 
	 viewBox="0 0 512.001 512.001" xml:space="preserve">
<path style="fill:#CCC2B8;" d="M266.061,160.07c0.465-17.122,7.6-32.568,18.897-43.864c11.688-11.688,27.832-18.922,45.675-18.922
	c10.819,0,20.611,4.381,27.709,11.48c1.848,1.848,3.5,3.867,4.944,6.059h0.012h36.68c55.969,0,101.338,45.37,101.338,101.338v49.482
	v149.07h-47.512v-65.074c0-23.193-9.399-44.194-24.6-59.395s-36.203-24.6-59.395-24.6c-28.651,0-54.598-11.615-73.385-30.389
	c-18.774-18.787-30.389-44.733-30.389-73.385C266.036,161.269,266.048,160.67,266.061,160.07z"/>
<g>
	<polygon style="fill:#B3B3B3;" points="369.834,376.968 369.847,414.712 309.766,414.712 309.766,376.968 369.809,376.968 	"/>
	<path style="fill:#B3B3B3;" d="M369.809,265.667l0.025,111.301h-0.025h-60.044v-66.322h15.054
		C349.653,310.646,369.809,290.512,369.809,265.667z"/>
</g>
<g>
	<path style="fill:#CCC2B8;" d="M248.804,310.646h-53.766h-60.962v66.322H73.115v-97.826c0-65.76,53.313-119.072,119.085-119.072
		h73.861c-0.012,0.599-0.025,1.2-0.025,1.799c0,28.651,11.615,54.598,30.389,73.385c18.787,18.774,44.733,30.389,73.385,30.389
		c0,0.012,0,0.012,0,0.025c0,24.844-20.158,44.978-44.99,44.978h-15.054v66.322h-60.962V310.646z"/>
	<rect x="248.808" y="376.965" style="fill:#CCC2B8;" width="60.96" height="37.745"/>
</g>
<g>
	<rect x="134.078" y="376.965" style="fill:#B3B3B3;" width="60.96" height="37.745"/>
	<rect x="134.078" y="310.642" style="fill:#B3B3B3;" width="60.96" height="66.323"/>
</g>
<rect x="73.118" y="376.965" style="fill:#CCC2B8;" width="60.96" height="37.745"/>
<path d="M501.317,315.586c-5.899,0-10.684,4.783-10.684,10.684v3.876c0,5.899,4.784,10.684,10.684,10.684
	c5.899,0,10.683-4.784,10.683-10.684v-3.876C512,320.37,507.217,315.586,501.317,315.586z"/>
<path d="M10.683,305.492c5.9,0,10.683-4.783,10.683-10.684c0-22.669,18.443-41.111,41.111-41.111h2.464
	c-1.643,8.232-2.512,16.738-2.512,25.446v135.57c0,5.901,4.783,10.684,10.683,10.684h60.962h60.962
	c5.9,0,10.683-4.783,10.683-10.684v-93.384h32.399v93.384c0,5.901,4.783,10.684,10.683,10.684h60.962h60.08
	c2.833,0,5.552-1.126,7.555-3.13c2.003-2.004,3.129-4.722,3.128-7.556l-0.033-137.61c15.528,2.253,29.86,9.405,41.155,20.698
	c13.846,13.847,21.472,32.258,21.472,51.842v65.074c0,5.901,4.784,10.684,10.684,10.684h47.512c5.899,0,10.684-4.783,10.684-10.684
	v-47.341c0-5.901-4.784-10.684-10.684-10.684c-5.899,0-10.684,4.783-10.684,10.684v36.657h-26.145V349.64
	c0-25.29-9.848-49.067-27.729-66.95c-17.882-17.881-41.659-27.729-66.95-27.729c-24.86,0-48.24-9.682-65.827-27.258
	c-17.581-17.592-27.263-40.972-27.263-65.833c0-0.526,0.012-1.05,0.021-1.509c0.376-13.806,5.976-26.805,15.772-36.601
	c10.184-10.184,23.722-15.792,38.122-15.792c7.611,0,14.768,2.966,20.154,8.352c1.341,1.34,2.545,2.814,3.578,4.382
	c0.081,0.123,0.165,0.245,0.25,0.363c2.952,4.583,4.511,9.897,4.511,15.396v25.616c0,5.9,4.784,10.683,10.684,10.683
	c5.899,0,10.684-4.783,10.684-10.683v-25.616c0-3.717-0.409-7.387-1.209-10.955h20.695c49.987,0,90.654,40.667,90.654,90.654v72.883
	c0,5.901,4.784,10.684,10.684,10.684c5.899,0,10.684-4.783,10.684-10.684v-72.883c0-61.769-50.252-112.021-112.021-112.021h-31.397
	c-0.859-1.01-1.749-1.992-2.686-2.929c-9.421-9.421-21.945-14.609-35.263-14.609c-20.106,0-39.011,7.831-53.231,22.051
	c-11.18,11.18-18.441,25.356-21.009,40.735H192.2c-55.055,0-102.206,34.462-121.026,82.942H62.48
	C28.028,232.329,0,260.357,0,294.808C0,300.709,4.783,305.492,10.683,305.492z M83.798,387.651h39.595v16.378H83.798V387.651z
	 M144.76,404.029v-16.378h39.595v16.378H144.76z M184.354,366.284h-39.595v-44.956h39.595V366.284z M259.487,387.651h39.596v16.378
	h-39.596V387.651z M320.449,404.029v-16.378h38.706l0.004,16.378H320.449z M359.15,366.284h-38.701v-44.956h4.37
	c12.94,0,24.853-4.449,34.318-11.882L359.15,366.284z M192.198,170.754h63.495c2.076,27.218,13.671,52.534,33.181,72.057
	c18.728,18.716,42.795,30.151,68.758,32.88c-4.299,14.036-17.383,24.272-32.813,24.272h-15.053c-5.899,0-10.683,4.784-10.683,10.684
	v55.64h-39.596v-55.64v-15.837c0-5.901-4.783-10.684-10.683-10.684s-10.683,4.783-10.683,10.684v5.154H134.075
	c-5.9,0-10.683,4.784-10.683,10.684v55.64H83.798v-87.142C83.798,219.376,132.426,170.754,192.198,170.754z"/>
<path d="M414.47,194.498v6.536c0,5.899,4.784,10.684,10.683,10.684c5.899,0,10.684-4.784,10.684-10.684v-6.536
	c0-5.9-4.784-10.684-10.684-10.684C419.254,183.814,414.47,188.597,414.47,194.498z"/>
</svg>