<?xml version="1.0" encoding="iso-8859-1"?>
<!-- Uploaded to: SVG Repo, www.svgrepo.com, Generator: SVG Repo Mixer Tools -->
<svg height="800px" width="800px" version="1.1" id="Layer_1" xmlns="http://www.w3.org/2000/svg" xmlns:xlink="http://www.w3.org/1999/xlink" 
	 viewBox="0 0 512 512" xml:space="preserve">
<path style="fill:#F0C419;" d="M473.073,174.812h-24.587h-39.305v-39.137h24.755C455.556,135.675,473.073,153.202,473.073,174.812z"
	/>
<g>
	<path style="fill:#DF4D60;" d="M448.487,174.812v51.835c0,16.402-13.298,29.7-29.7,29.7h-9.605v-20.095v-61.441H448.487z"/>
	<path style="fill:#DF4D60;" d="M409.486,43.756c20.242,0,36.654,16.412,36.654,36.654s-16.412,36.654-36.654,36.654
		c-0.105,0-0.21,0-0.305,0v-1.862c0-23.587-19.127-42.714-42.725-42.714c-25.544,0-46.607,19.232-49.5,44.008
		c-17.159-3.062-30.173-18.054-30.173-36.086c0-20.242,16.402-36.654,36.644-36.654c2.22,0,4.387,0.21,6.502,0.589
		c1.441-18.927,17.233-33.824,36.528-33.824c19.295,0,35.087,14.897,36.538,33.824C405.099,43.966,407.266,43.756,409.486,43.756z"
		/>
</g>
<path style="fill:#FFF3E6;" d="M409.181,174.812v61.441c0,51.12-20.726,97.401-54.224,130.898
	c-33.498,33.508-79.789,54.224-130.909,54.224c-102.24,0-185.122-82.882-185.122-185.122h60.526h5.555v36.822
	c0,29.458,13.382,55.781,34.403,73.224c16.475,13.687,37.643,21.904,60.725,21.904c52.53,0,95.118-42.588,95.118-95.128v-36.822
	h-19.8c22.735,0,41.167-18.432,41.167-41.167v-72.761c0-1.978,0.116-3.924,0.337-5.828c2.893-24.776,23.956-44.008,49.5-44.008
	c23.598,0,42.725,19.127,42.725,42.714v1.862v18.611V174.812z"/>
<g>
	<path style="fill:#F0C419;" d="M139.41,346.299c-21.02-17.443-34.403-43.766-34.403-73.224v-36.822h170.446h19.8v36.822
		c0,52.54-42.588,95.128-95.118,95.128C177.053,368.203,155.885,359.987,139.41,346.299z"/>
	<path style="fill:#F0C419;" d="M99.452,225.574v10.678H38.927v-71.204C72.351,165.049,99.452,192.15,99.452,225.574z"/>
</g>
<path d="M213.528,431.61v69.869c0,5.811,4.71,10.521,10.521,10.521h40.947c5.811,0,10.521-4.71,10.521-10.521
	c0-5.811-4.71-10.521-10.521-10.521h-30.426v-59.347c48.318-2.543,93.375-22.558,127.827-57.021
	c29.633-29.633,48.577-67.098,54.925-107.722h1.464c22.178,0,40.221-18.043,40.221-40.221v-41.315h14.066
	c5.811,0,10.521-4.71,10.521-10.521c0-27.381-22.277-49.658-49.658-49.658h-9.535c18.723-6.258,32.26-23.944,32.26-44.745
	c0-25.33-20.065-46.061-45.135-47.132C405.53,13.974,387.396,0,366.457,0c-20.945,0-39.075,13.973-45.063,33.278
	c-25.068,1.069-45.132,21.801-45.132,47.132c0,19.707,12.11,36.913,29.837,43.886v70.79c0,16.898-13.747,30.647-30.647,30.647
	H109.973v-0.158c0-39.175-31.871-71.046-71.046-71.046c-5.811,0-10.521,4.71-10.521,10.521v71.204
	C28.406,340.601,110.523,426.126,213.528,431.61z M437.966,226.647c0,10.269-8.111,18.678-18.264,19.157v-60.472h18.264
	L437.966,226.647L437.966,226.647z M460.55,164.291h-12.063h-28.785v-18.096h14.234C446.003,146.196,456.349,153.702,460.55,164.291
	z M297.304,80.41c0-14.41,11.719-26.133,26.123-26.133c1.512,0,3.075,0.143,4.647,0.424c2.93,0.525,5.943-0.215,8.296-2.037
	s3.824-4.553,4.05-7.52c1.029-13.515,12.466-24.102,26.037-24.102c13.57,0,25.011,10.589,26.048,24.108
	c0.227,2.967,1.701,5.699,4.056,7.519c2.355,1.82,5.367,2.557,8.299,2.03c1.558-0.281,3.114-0.423,4.627-0.423
	c14.41,0,26.133,11.724,26.133,26.133c0,11.173-7.05,20.727-16.933,24.456c-4.827-24.423-26.407-42.899-52.23-42.899
	c-26.15,0-48.749,16.712-57.011,40.517C302.076,97.815,297.304,89.613,297.304,80.41z M88.931,225.574v0.158H49.447v-49.05
	C71.985,181.528,88.931,201.61,88.931,225.574z M94.486,246.773v26.302c0,31.532,13.925,61.173,38.201,81.317
	c18.887,15.691,42.84,24.332,67.448,24.332c33.165,0,64.827-15.885,84.694-42.494c3.476-4.656,2.52-11.249-2.137-14.725
	c-4.654-3.476-11.248-2.52-14.725,2.136c-16.152,21.634-40.876,34.041-67.833,34.041c-16.004,0-31.66-4.562-45.078-13.006
	l21.836-24.158c3.897-4.31,3.56-10.964-0.75-14.859c-4.31-3.896-10.964-3.561-14.859,0.75l-22.514,24.908
	c-14.872-15.644-23.242-36.374-23.242-58.243v-26.302H284.73v22.641c0,5.811,4.71,10.521,10.521,10.521
	c5.811,0,10.521-4.71,10.521-10.521v-32.506c12.935-9.403,21.368-24.643,21.368-41.823v-72.761c0-1.539,0.089-3.092,0.265-4.608
	c2.313-19.785,19.101-34.707,39.053-34.707c17.757,0,32.204,14.442,32.204,32.193v59.61v61.441
	c0,46.634-18.163,90.479-51.143,123.46c-32.968,32.978-76.817,51.141-123.469,51.141c-92.744,0-168.831-72.683-174.288-164.081
	L94.486,246.773L94.486,246.773z"/>
<path d="M366.457,151.54c5.811,0,10.521-4.71,10.521-10.521v-10.679c0-5.811-4.71-10.521-10.521-10.521
	c-5.811,0-10.521,4.71-10.521,10.521v10.679C355.936,146.83,360.646,151.54,366.457,151.54z"/>
<path d="M290.706,312.752c4.446,0,8.576-2.841,10.013-7.3c0.247-0.769,0.486-1.542,0.716-2.32
	c1.653-5.571-1.523-11.425-7.094-13.078c-5.568-1.653-11.425,1.523-13.078,7.094c-0.185,0.622-0.376,1.241-0.573,1.857
	c-1.78,5.531,1.26,11.458,6.792,13.238C288.552,312.588,289.637,312.752,290.706,312.752z"/>
</svg>